<svg width="35" height="31" viewBox="0 0 35 31" fill="none" xmlns="http://www.w3.org/2000/svg">
<path d="M22.7158 22.9443C22.3876 22.8554 21.9912 22.9716 21.5059 23.2929L21.458 23.334C20.6719 24.1201 19.2432 24.5166 17.2129 24.5166C15.1826 24.5166 13.7539 24.1201 12.9678 23.334C12.6396 23.0058 11.9766 23.0058 11.6484 23.334C11.3066 23.6758 11.3066 24.3115 11.6689 24.6738C13.1249 25.8906 14.957 26.458 17.4247 26.458C19.9882 26.458 22.039 25.8154 23.2011 24.6533C23.3652 24.4892 23.4609 24.2499 23.4609 23.997C23.4609 23.7646 23.3788 23.539 23.2421 23.3818C23.0849 23.0947 22.873 22.9853 22.7158 22.9443ZM14.9775 17.8036C14.9775 16.2929 13.706 14.9189 12.3046 14.9189C10.9033 14.9189 9.63177 16.2929 9.63177 17.8036C9.63177 19.2528 10.8554 20.4765 12.3046 20.4765C13.7538 20.4765 14.9775 19.2528 14.9775 17.8036ZM22.5449 15.1308C21.0957 15.1308 19.872 16.3544 19.872 17.8036C19.872 19.2528 21.0957 20.4765 22.5449 20.4765C23.9941 20.4765 25.2177 19.2528 25.2177 17.8036C25.2177 16.3544 23.9941 15.1308 22.5449 15.1308ZM30.6455 10.8651C29.7705 10.8651 28.7451 11.2616 28.0547 11.8427C25.7304 10.3661 22.5927 9.45011 18.9218 9.18351L20.6308 3.4755L25.4228 4.62394C25.5664 6.39444 27.1455 7.89148 28.9365 7.89148C30.8164 7.89148 32.4639 6.24402 32.4639 4.36414C32.4639 2.48425 30.8164 0.836792 28.9365 0.836792C27.6445 0.836792 26.3389 1.62293 25.7646 2.703L20.0635 1.27429L19.9814 1.26746C19.5918 1.26746 19.0518 1.60925 19.0176 2.17664L16.7617 9.15613C13.166 9.19714 9.6318 10.1542 6.76758 11.87C5.91309 11.3368 5.07227 11.077 4.2041 11.077C1.90723 11.077 0.0341797 12.9432 0.0341797 15.2469C0.0341797 16.6825 0.724609 17.9608 1.95508 18.6444V19.5126C1.95508 22.4931 3.56152 25.0908 6.57617 27.0322C9.41309 28.9941 13.2686 30.0742 17.4316 30.0742C21.5947 30.0742 25.5596 28.9941 28.3965 27.0322C31.377 24.9677 33.127 22.2949 33.127 19.5126V18.624C34.0156 17.8447 34.9316 16.4501 34.9316 15.0283C34.9248 12.7314 32.9492 10.8651 30.6455 10.8651ZM32.8808 15.247C32.8808 15.6367 32.662 16.1904 32.2997 16.6005C31.8691 15.4589 31.0556 14.3789 29.7499 13.2031C30.0097 13.0937 30.2968 13.0185 30.6523 13.0185C31.9648 13.0117 32.8808 13.9345 32.8808 15.247ZM30.9599 19.5126C30.9599 22.1786 28.9433 24.2021 27.2753 25.4189C24.3769 27.2031 20.9726 28.1464 17.4248 28.1464C13.7607 28.1464 10.1718 27.1552 7.58102 25.4257C5.02438 23.7236 3.6777 21.6796 3.6777 19.5126C3.6777 17.3457 5.02438 15.3017 7.58102 13.5996C10.2129 11.8496 13.6308 10.8789 17.2129 10.8789C20.8769 10.8789 24.4658 11.8701 27.0566 13.5996C29.6064 15.3017 30.9599 17.3457 30.9599 19.5126V19.5126ZM5.14052 13.121C4.03994 13.996 3.10341 15.165 2.44716 16.4912C2.18056 16.0605 1.96865 15.6367 1.96865 15.247C1.96865 13.9345 2.88466 13.0185 4.19716 13.0185C4.6415 13.0117 4.91494 13.0185 5.14052 13.121ZM27.3505 4.37107C27.3505 3.47557 28.0478 2.7783 28.9433 2.7783C29.8388 2.7783 30.5361 3.47557 30.5361 4.37107C30.5361 5.26658 29.8388 5.96385 28.9433 5.96385C28.0478 5.95701 27.3505 5.25975 27.3505 4.37107Z" fill="black"/>
</svg>
