<svg width="36" height="26" viewBox="0 0 36 26" fill="none" xmlns="http://www.w3.org/2000/svg">
<path d="M14.5 18.25L23.5825 13L14.5 7.75V18.25ZM34.73 4.5475C34.9575 5.37 35.115 6.4725 35.22 7.8725C35.3425 9.2725 35.395 10.48 35.395 11.53L35.5 13C35.5 16.8325 35.22 19.65 34.73 21.4525C34.2925 23.0275 33.2775 24.0425 31.7025 24.48C30.88 24.7075 29.375 24.865 27.065 24.97C24.79 25.0925 22.7075 25.145 20.7825 25.145L18 25.25C10.6675 25.25 6.1 24.97 4.2975 24.48C2.7225 24.0425 1.7075 23.0275 1.27 21.4525C1.0425 20.63 0.885 19.5275 0.78 18.1275C0.6575 16.7275 0.605 15.52 0.605 14.47L0.5 13C0.5 9.1675 0.78 6.35 1.27 4.5475C1.7075 2.9725 2.7225 1.9575 4.2975 1.52C5.12 1.2925 6.625 1.135 8.935 1.03C11.21 0.9075 13.2925 0.855 15.2175 0.855L18 0.75C25.3325 0.75 29.9 1.03 31.7025 1.52C33.2775 1.9575 34.2925 2.9725 34.73 4.5475Z" fill="black"/>
</svg>
