<svg width="40" height="30" viewBox="0 0 40 30" fill="none" xmlns="http://www.w3.org/2000/svg">
<path d="M33.3284 2.77171C30.8901 1.63504 28.2501 0.810041 25.5001 0.333374C25.4517 0.334063 25.4056 0.353832 25.3717 0.388374C25.0417 0.993374 24.6567 1.78171 24.4001 2.38671C21.4832 1.94698 18.5169 1.94698 15.6001 2.38671C15.3434 1.76337 14.9584 0.993374 14.6101 0.388374C14.5917 0.351708 14.5367 0.333374 14.4817 0.333374C11.7317 0.810041 9.11005 1.63504 6.65339 2.77171C6.63505 2.77171 6.61672 2.79004 6.59839 2.80837C1.61172 10.27 0.236719 17.53 0.915052 24.7167C0.915052 24.7534 0.933385 24.79 0.970052 24.8084C4.27005 27.2284 7.44172 28.695 10.5767 29.6667C10.6317 29.685 10.6867 29.6667 10.7051 29.63C11.4384 28.6217 12.0984 27.5584 12.6667 26.44C12.7034 26.3667 12.6667 26.2934 12.5934 26.275C11.5484 25.8717 10.5584 25.395 9.58672 24.845C9.51339 24.8084 9.51338 24.6984 9.56839 24.6434C9.77005 24.4967 9.97172 24.3317 10.1734 24.185C10.2101 24.1484 10.2651 24.1484 10.3017 24.1667C16.6084 27.045 23.4101 27.045 29.6434 24.1667C29.6801 24.1484 29.7351 24.1484 29.7717 24.185C29.9734 24.35 30.175 24.4967 30.3767 24.6617C30.45 24.7167 30.45 24.8267 30.3584 24.8634C29.405 25.4317 28.3967 25.89 27.3517 26.2934C27.2784 26.3117 27.2601 26.4034 27.2784 26.4584C27.8651 27.5767 28.5251 28.64 29.2401 29.6484C29.2951 29.6667 29.35 29.685 29.4051 29.6667C32.5584 28.695 35.73 27.2284 39.03 24.8084C39.0667 24.79 39.085 24.7534 39.085 24.7167C39.8917 16.4117 37.7467 9.20671 33.4017 2.80837C33.3834 2.79004 33.3651 2.77171 33.3284 2.77171ZM13.6201 20.335C11.7317 20.335 10.1551 18.5934 10.1551 16.4484C10.1551 14.3034 11.6951 12.5617 13.6201 12.5617C15.5634 12.5617 17.1034 14.3217 17.0851 16.4484C17.0851 18.5934 15.5451 20.335 13.6201 20.335ZM26.3984 20.335C24.5101 20.335 22.9334 18.5934 22.9334 16.4484C22.9334 14.3034 24.4734 12.5617 26.3984 12.5617C28.3417 12.5617 29.8817 14.3217 29.8634 16.4484C29.8634 18.5934 28.3417 20.335 26.3984 20.335Z" fill="black"/>
</svg>
